<svg width="99" height="60" viewBox="0 0 99 60" fill="none" xmlns="http://www.w3.org/2000/svg">
<path d="M5.17501 37.8352L19.9913 52.1631C21.9669 54.0758 24.4875 55.2788 27.1782 55.5933C29.8689 55.9078 32.5861 55.3169 34.9255 53.9085L94.4265 18.1901L87.1166 8.93578C85.2151 6.53724 82.5456 4.92019 79.5906 4.3768C76.6355 3.8334 73.5897 4.39948 71.0034 5.97278L53.554 16.5665L29.9736 8.44871L23.4891 11.3305C23.0039 11.5453 22.5789 11.8827 22.2533 12.3117C21.9276 12.7406 21.7118 13.2474 21.6256 13.7852C21.5395 14.323 21.5858 14.8746 21.7604 15.389C21.9349 15.9035 22.2321 16.3642 22.6244 16.7289L34.6897 27.9315L23.6856 34.4257L12.6814 29.555L6.07893 32.4774C5.59857 32.6905 5.17725 33.024 4.8531 33.4476C4.52895 33.8712 4.31219 34.3716 4.22245 34.9036C4.13271 35.4355 4.17281 35.9821 4.33914 36.494C4.50546 37.0059 4.79276 37.4669 5.17501 37.8352V37.8352Z" stroke="white" stroke-width="8.35135" stroke-linecap="round" stroke-linejoin="round"/>
</svg>
